<?xml version="1.0" encoding="utf-8"?>
<!-- Generator: Adobe Illustrator 21.0.0, SVG Export Plug-In . SVG Version: 6.00 Build 0)  -->
<svg version="1.1" id="Isolation_Mode" xmlns="http://www.w3.org/2000/svg" xmlns:xlink="http://www.w3.org/1999/xlink" x="0px"
	 y="0px" viewBox="0 0 85 44.6" enable-background="new 0 0 85 44.6" xml:space="preserve">
<path fill="#7F1714" d="M24,21.8c0,2.8-0.9,5.5-2.4,7.4c-1.5,1.8-3.5,2.9-5.6,2.9c-0.2,0-0.5,0-0.7,0c-4.1,0-7.9-1.7-10.7-4.8
	c-2.7-3-4.2-6.9-4.2-11.1c0-4.2,1.5-8.2,4.2-11.1C7.4,2,11.2,0.2,15.2,0.2c0.2,0,0.5,0,0.7,0c0.1,0,6.7,0.2,7.9,6.2l0,0
	c0,0.2,0.1,0.5,0.1,0.7c0,2.2-1.8,3.9-3.9,3.9c-2.2,0-3.9-1.8-3.9-3.9s1.8-3.9,3.9-3.9c0.9,0,1.7,0.3,2.3,0.8
	c-0.7-1.1-1.8-1.9-3.1-2.5C17.6,0.8,16,0.7,16,0.7c-0.1,0-0.3,0-0.4,0c-4.1,0-7.4,6.9-7.4,15.5c0,7.6,2.6,13.8,6,15.2
	c0.3,0.1,0.9,0.3,1.8,0.3c1.9,0,3.8-1,5.2-2.7c1.5-1.8,2.3-4.4,2.3-7.1H24z M32,0.8v21.9l7.7-7.8V0.8H32z M43.4,0.8H28.2v0.5h15.1
	V0.8z M51.4,23.2c0,2-0.4,3.7-1,5c-1,1.9-2.8,2.9-5.3,2.9h-0.1c-1.6,0-2.8-0.4-3.7-1l-1.7,1.7c1.2,0.3,2.5,0.4,3.9,0.4h0.1
	c3,0,5.2-0.9,6.5-2.7c1.1-1.4,1.6-3.5,1.6-6.2 M84.6,11.1c0.1-6.4-4.7-10.2-13-10.3l-1.7,0v0.5l0.9,0c4.9,0,7.1,3,7,9.7
	c0,1.7-0.1,3.9-0.7,5.7c-0.7,2.1-2,3.1-3.9,3.1h0c-1.4,0-2.7-0.4-3.3-0.6v0.5c0.7,0.3,2.3,0.7,4.2,0.8c0.1,0,0.1,0,0.2,0
	C80.7,20.6,84.6,17.1,84.6,11.1 M73.4,31.1H58.3v0.5h15.1V31.1z M62.9,0.8H47.8v0.5h15.1V0.8z M51.4,23.2h0.5v-22h-0.5V23.2z
	 M69.9,0.8h-7.7v30.4h7.7V0.8z M0.5,39.8v4.5H1v-1.4h1.2c1.1,0,1.8-0.6,1.8-1.6c0-1-0.6-1.5-1.8-1.5H0.5z M1,40.3h1.2
	c0.8,0,1.3,0.3,1.3,1c0,0.7-0.5,1.1-1.3,1.1H1V40.3z M8.9,44.3h0.6l-1.1-1.5c0.7-0.2,1-0.7,1-1.5c0-1-0.7-1.5-1.8-1.5H6v4.5h0.5
	v-1.4h1.2c0.1,0,0.2,0,0.3,0L8.9,44.3z M6.5,42.4v-2.1h1.2c0.8,0,1.3,0.3,1.3,1c0,0.7-0.5,1.1-1.3,1.1H6.5z M14.9,40.3v-0.5h-3.1
	v4.5h3.2v-0.5h-2.6v-1.6h2.3v-0.5h-2.3v-1.5H14.9z M20.2,44.3h0.6l-1.9-2.6l1.8-2h-0.6l-2.4,2.6v-2.6h-0.5v4.5h0.5v-1.2l0.9-1
	L20.2,44.3z M24.4,42.8l1.7-3h-0.5l-1.5,2.4l-1.5-2.4h-0.5l1.8,3v1.5h0.5V42.8z M27.9,39.8v4.5h1.9c1,0,1.6-0.5,1.6-1.2
	c0-0.6-0.4-1-1-1.1c0.5-0.1,0.8-0.5,0.8-1c0-0.7-0.5-1.1-1.5-1.1H27.9z M28.5,40.3h1.4c0.6,0,1,0.3,1,0.7c0,0.5-0.4,0.7-1,0.7h-1.4
	V40.3z M28.5,42.3h1.4c0.7,0,1.2,0.3,1.2,0.8c0,0.5-0.4,0.8-1.2,0.8h-1.4V42.3z M38,42.1c0-1.3-1-2.3-2.4-2.3c-1.3,0-2.4,1-2.4,2.3
	c0,1.3,1,2.3,2.4,2.3C37,44.4,38,43.3,38,42.1 M33.8,42.1c0-1,0.8-1.8,1.9-1.8s1.8,0.8,1.8,1.8c0,1-0.8,1.8-1.8,1.8
	S33.8,43.1,33.8,42.1 M42.9,40.2c-0.4-0.3-0.9-0.4-1.4-0.4c-0.9,0-1.6,0.5-1.6,1.2c0,1.6,2.5,1,2.5,2.2c0,0.4-0.4,0.7-1.1,0.7
	c-0.5,0-1.1-0.2-1.5-0.6l-0.2,0.5c0.4,0.4,1.1,0.7,1.7,0.7c1,0,1.6-0.5,1.6-1.2c0-1.6-2.5-1-2.5-2.2c0-0.4,0.4-0.6,1-0.6
	c0.4,0,0.8,0.1,1.2,0.4L42.9,40.2 M51.7,40.5c-0.4-0.4-1-0.7-1.7-0.7c-1.3,0-2.4,1-2.4,2.3c0,1.3,1,2.3,2.3,2.3
	c0.6,0,1.2-0.3,1.7-0.7l-0.3-0.4c-0.4,0.3-0.8,0.5-1.3,0.5c-1,0-1.8-0.8-1.8-1.8c0-1,0.8-1.8,1.8-1.8c0.5,0,1,0.2,1.3,0.6L51.7,40.5
	 M56.8,40.3v-0.5h-3.1v4.5h3.2v-0.5h-2.6v-1.6h2.3v-0.5h-2.3v-1.5H56.8z M62.9,44.3v-4.5h-0.5v3.6l-2.7-3.6h-0.5v4.5h0.5v-3.6
	l2.7,3.6H62.9z M68.2,40.3v-0.5h-3.5v0.5h1.5v4h0.5v-4H68.2z M73.1,44.3h0.6l-1.1-1.5c0.7-0.2,1-0.7,1-1.5c0-1-0.7-1.5-1.8-1.5h-1.7
	v4.5h0.5v-1.4h1.2c0.1,0,0.2,0,0.3,0L73.1,44.3z M70.6,42.4v-2.1h1.2c0.8,0,1.3,0.3,1.3,1c0,0.7-0.5,1.1-1.3,1.1H70.6z M78.8,43.2
	l0.5,1.1h0.6l-2-4.5h-0.5l-2,4.5h0.6l0.5-1.1H78.8z M78.6,42.7h-2l1-2.3L78.6,42.7z M84.4,40.2C84,40,83.5,39.8,83,39.8
	c-0.9,0-1.6,0.5-1.6,1.2c0,1.6,2.5,1,2.5,2.2c0,0.4-0.4,0.7-1.1,0.7c-0.5,0-1.1-0.2-1.5-0.6l-0.2,0.5c0.4,0.4,1.1,0.7,1.7,0.7
	c1,0,1.6-0.5,1.6-1.2c0-1.6-2.5-1-2.5-2.2c0-0.4,0.4-0.6,1-0.6c0.4,0,0.8,0.1,1.2,0.4L84.4,40.2"/>
</svg>
